# xmcd
#
# Track frame offsets:
#	150
#	18437
#	41112
#	57687
#	80012
#	100875
#	118475
#	134587
#	154325
#	173615
#
# Disc length: 2604 seconds
#
# Revision: 1
# Processed by: cddbd v1.4PL0 Copyright (c) Steve Scherf et al.
# Submitted via: audiograbber 1.82.02
#
DISCID=910a2a0a
DTITLE=Browne, Jann - Missed Me By A Mile
DYEAR=2001
DGENRE=
TTITLE0=Can't Build A Better Love
TTITLE1=Cold Here In London
TTITLE2=Change Your Mind
TTITLE3=Missed Me By A Mile
TTITLE4=Don't Be Mad
TTITLE5=Heart You Can't Ignore
TTITLE6=The Lucky Few
TTITLE7=Don't Worry 'Bout Tomorrow
TTITLE8=Thought I Had It All
TTITLE9=The Lonesome Mile
EXTD=
EXTT0=
EXTT1=
EXTT2=
EXTT3=
EXTT4=
EXTT5=
EXTT6=
EXTT7=
EXTT8=
EXTT9=
PLAYORDER=
